<?xml version="1.0" encoding="UTF-8"?>
<svg width="512px" height="512px" viewBox="0 0 512 512" version="1.1" xmlns="http://www.w3.org/2000/svg" xmlns:xlink="http://www.w3.org/1999/xlink">
    <!-- Generator: Sketch 42 (36781) - http://www.bohemiancoding.com/sketch -->
    <title>CBT-Logo Three Tone Green_SVG</title>
    <desc>Created with Sketch.</desc>
    <defs>
        <circle id="path-1" cx="175" cy="227" r="160"></circle>
        <path d="M175.753143,267.494562 C149.904443,304.11378 120.408822,322.423114 87.2653963,322.423114 C61.7338578,322.423114 40.8807711,313.696235 24.7055106,296.242215 C8.5302502,278.617078 0.442741291,255.858747 0.442741291,227.966539 C0.442741291,200.92992 8.6095395,178.599377 24.9433809,160.97424 C41.2772224,143.349102 62.0510198,134.536666 87.2653963,134.536666 C119.615917,134.536666 148.318645,152.760442 173.374441,189.208542 C197.795912,152.760442 227.291533,134.536666 261.862188,134.536666 C287.552307,134.536666 308.326104,143.349102 324.184203,160.97424 C340.359463,178.428259 348.446972,201.015475 348.446972,228.736565 C348.446972,256.11542 340.359463,278.617078 324.184203,296.242215 C308.326104,313.867353 287.790175,322.679789 262.575798,322.679789 C228.95663,322.679789 200.016034,304.284898 175.753143,267.494562 L175.753143,267.494562 Z M284.795636,311.810079 C302.750569,311.810079 317.755538,303.956296 329.810992,288.248493 C341.866447,271.886198 347.894084,251.924498 347.894084,228.362794 C347.894084,205.455582 341.7382,185.821123 329.426246,169.458829 C317.62729,153.42378 302.622321,145.406376 284.41089,145.406376 C255.682997,145.406376 227.083784,173.058239 198.61239,228.362794 C227.083784,283.994596 255.811245,311.810079 284.795636,311.810079 Z M63.7093307,145.406376 C45.7543981,145.406376 30.877677,153.42378 19.0787212,169.458829 C7.02326643,185.821123 0.995629442,205.455582 0.995629442,228.362794 C0.995629442,251.597253 7.02326643,271.395332 19.0787212,287.757626 C31.3906751,303.792675 46.5238913,311.810079 64.478824,311.810079 C93.4632153,311.810079 122.062429,283.994596 150.277323,228.362794 C122.318928,173.058239 93.4632192,145.406376 63.7093307,145.406376 Z" id="path-3"></path>
    </defs>
    <g id="Page-1" stroke="none" stroke-width="1" fill="none" fill-rule="evenodd">
        <g id="CBT-Logo-Three-Tone-Green">
            <g id="Group-2" transform="translate(81.000000, 29.000000)">
                <mask id="mask-2" fill="white">
                    <use xlink:href="#path-1"></use>
                </mask>
                <g id="Oval-10"></g>
                <path d="M191.45432,288.012986 C186.01935,281.964897 180.785627,275.125424 175.753143,267.494562 C169.838616,275.873528 163.733151,283.29387 157.43674,289.755595 C167.067705,273.26109 172.894234,251.752698 172.894234,228.227371 C172.894234,207.398767 168.32694,188.151195 160.595731,172.564608 C164.95579,177.610442 169.215358,183.158419 173.374441,189.208542 C179.990723,179.333997 186.979438,170.797082 194.340603,163.597785 C183.585139,180.451698 176.989778,203.197996 176.989778,228.227371 C176.989778,250.932863 182.417284,271.759546 191.454328,288.013001 Z M248.473127,321.556678 C253.078802,322.305419 257.779691,322.679789 262.575798,322.679789 C287.790175,322.679789 308.326104,313.867353 324.184203,296.242215 C340.359463,278.617078 348.446972,256.11542 348.446972,228.736565 C348.446972,201.015475 340.359463,178.428259 324.184203,160.97424 C308.326104,143.349102 287.552307,134.536666 261.862188,134.536666 C257.904069,134.536666 254.012479,134.775557 250.187414,135.253341 C280.624849,142.190419 303.932987,181.174675 303.932987,228.227371 C303.932987,276.159639 279.74529,315.718996 248.473114,321.55668 Z M100.620722,321.401702 C96.2367779,322.082644 91.7850034,322.423114 87.2653963,322.423114 C61.7338578,322.423114 40.8807711,313.696235 24.7055106,296.242215 C8.5302502,278.617078 0.442741291,255.858747 0.442741291,227.966539 C0.442741291,200.92992 8.6095395,178.599377 24.9433809,160.97424 C41.2772224,143.349102 62.0510198,134.536666 87.2653963,134.536666 C91.2846143,134.536666 95.2475267,134.817959 99.1541353,135.380546 C68.9826648,142.654544 45.9510248,181.454594 45.9510248,228.227371 C45.9510248,275.755148 69.7322138,315.050732 100.620722,321.401702 Z" id="∞-copy-4" fill="#64A798"></path>
                <mask id="mask-4" fill="white">
                    <use xlink:href="#path-3"></use>
                </mask>
                <use id="∞-copy-2" fill="#50E39C" xlink:href="#path-3"></use>
                <path d="M231.55071,176.768154 C218.247331,192.410711 199.259689,229.521048 199.259689,229.521048 C199.259689,229.521048 194.130846,220.537115 186.204818,208.343303 C178.27879,196.149491 173.349324,189.022983 173.349324,189.022983 C173.349324,189.022983 196.696105,150.013381 216.334773,147.085722 C235.973441,144.158062 246,175.376983 246,175.376983 C246,175.376983 233.62306,174.331415 231.55071,176.768154 Z" id="Path-24" fill="#64A798" opacity="0.900000036" mask="url(#mask-4)"></path>
                <path d="M117.44929,279.655329 C130.752669,264.012772 149.981331,227.842373 149.981331,227.842373 C149.981331,227.842373 158.544388,242.221564 163.323843,249.544841 C167.6005,256.097711 176.276105,268.251434 176.276105,268.251434 C176.276105,268.251434 152.303895,306.410101 132.665227,309.337761 C113.026559,312.26542 103,281.0465 103,281.0465 C103,281.0465 115.37694,282.092068 117.44929,279.655329" id="Path-24-Copy" fill="#64A798" opacity="0.900000036" mask="url(#mask-4)"></path>
                <g id="Group" transform="translate(18.000000, 0.000000)" fill="#B8E986">
                    <path d="M135.981847,148.24777 C187.054174,131.245764 220.912038,148.24777 244.819971,148.247771 C269.592252,148.247772 289.674154,128.121653 289.674154,103.294828 C289.674154,78.4680033 270.116658,59.4389691 244.819967,57.0243633 C234.530447,56.0422137 178.674044,44.4094451 119.909153,97.3929915 C61.1442615,150.376538 67.9112854,217.019972 67.9112854,217.019972 C67.9112854,217.019972 84.9095207,165.249777 135.981847,148.24777 Z" id="Oval-10-Copy-2" transform="translate(178.674154, 136.147743) rotate(-315.000000) translate(-178.674154, -136.147743) "></path>
                    <path d="M92.9818473,331.24777 C144.054174,314.245764 177.912038,331.24777 201.819971,331.247771 C226.592252,331.247772 246.674154,311.121653 246.674154,286.294828 C246.674154,261.468003 227.116658,242.438969 201.819967,240.024363 C191.530447,239.042214 135.674044,227.409445 76.9091527,280.392991 C18.1442615,333.376538 24.9112854,400.019972 24.9112854,400.019972 C24.9112854,400.019972 41.9095207,348.249777 92.9818473,331.24777 Z" id="Oval-10-Copy-3" transform="translate(135.674154, 319.147743) rotate(-135.000000) translate(-135.674154, -319.147743) "></path>
                </g>
            </g>
        </g>
    </g>
</svg>