<?xml version="1.0" encoding="utf-8"?>
<!-- Generator: Adobe Illustrator 17.0.0, SVG Export Plug-In . SVG Version: 6.00 Build 0)  -->
<!DOCTYPE svg PUBLIC "-//W3C//DTD SVG 1.1//EN" "http://www.w3.org/Graphics/SVG/1.1/DTD/svg11.dtd">
<svg version="1.1" id="Layer_1" xmlns="http://www.w3.org/2000/svg" xmlns:xlink="http://www.w3.org/1999/xlink" x="0px" y="0px"
	 width="316.031px" height="55.512px" viewBox="0 0 316.031 55.512" enable-background="new 0 0 316.031 55.512"
	 xml:space="preserve">
<g>
	<rect y="1.313" fill="none" width="316.031" height="54.198"/>
	<path fill="#FFFFFF" d="M16.521,17.289l2,3.999c0,0-2.299,1.899-6.773,1.899c-5.824,0-11.172-4.749-11.172-10.647
		c0-5.924,5.324-10.723,11.172-10.723c4.474,0,6.773,1.9,6.773,1.9l-2,3.999c0,0-1.649-1.275-4.049-1.275
		c-4.724,0-6.798,3.299-6.798,6.049c0,2.774,2.074,6.073,6.798,6.073C14.872,18.563,16.521,17.289,16.521,17.289z"/>
	<path fill="#FFFFFF" d="M32.122,6.316h-7.098v4.099h6.798v4.124h-6.798v4.149h7.098v4.124H20.324V2.192h11.797v4.124H32.122z"/>
	<path fill="#FFFFFF" d="M39.522,22.813h-4.699V2.192h4.699l8.198,12.797h0.05V2.192h4.699v20.62H47.77l-8.198-12.797h-0.05V22.813z
		"/>
	<path fill="#FFFFFF" d="M52.975,2.192h14.496v4.124h-4.898v16.496h-4.699V6.316h-4.898V2.192H52.975z"/>
	<path fill="#FFFFFF" d="M76.547,2.192c3.824,0,6.723,2.075,6.723,6.124c0,3.099-1.7,5.174-4.224,5.974l7.099,8.523h-5.974
		l-6.298-8.148v8.148h-4.699V2.192H76.547z M74.423,11.34c1.774,0,3.899-0.125,3.899-2.699c0-2.575-2.125-2.7-3.899-2.7h-0.55v5.399
		C73.873,11.34,74.423,11.34,74.423,11.34z"/>
	<path fill="#FFFFFF" d="M98.871,6.316h-7.099v4.099h6.799v4.124h-6.799v4.149h7.099v4.124H87.074V2.192h11.797
		C98.871,2.192,98.871,6.316,98.871,6.316z"/>
	<path fill="#FFFFFF" d="M117.871,1.817c5.724,0,10.373,4.649,10.373,10.673c0,6.023-4.449,10.697-10.373,10.697
		c-6.098,0-10.397-4.674-10.397-10.697C107.473,6.466,112.197,1.817,117.871,1.817z M117.871,18.639
		c3.749,0,5.299-3.074,5.299-6.148s-1.649-6.149-5.299-6.149c-3.624,0-5.324,3.075-5.324,6.149S114.021,18.639,117.871,18.639z"/>
	<path fill="#FFFFFF" d="M142.245,6.316h-7.224v4.099h6.674v4.124h-6.674v8.273h-4.699V2.192h11.922v4.124H142.245z"/>
	<path fill="#FFFFFF" d="M163.12,6.316h-7.098v4.099h6.798v4.124h-6.798v4.149h7.098v4.124h-11.797V2.192h11.797V6.316z"/>
	<path fill="#FFFFFF" d="M179.043,22.813l-4.874-7.023l-4.874,7.023h-5.823l7.798-11.097l-6.499-9.523h5.599l3.799,5.624
		l3.799-5.624h5.849l-6.748,9.523l8.048,11.097H179.043z"/>
	<path fill="#FFFFFF" d="M199.993,17.289l2,3.999c0,0-2.299,1.899-6.773,1.899c-5.824,0-11.172-4.749-11.172-10.647
		c0-5.924,5.324-10.723,11.172-10.723c4.474,0,6.773,1.9,6.773,1.9l-2,3.999c0,0-1.649-1.275-4.049-1.275
		c-4.724,0-6.798,3.299-6.798,6.049c0,2.774,2.074,6.073,6.798,6.073C198.344,18.563,199.993,17.289,199.993,17.289z"/>
	<path fill="#FFFFFF" d="M215.594,6.316h-7.099v4.099h6.799v4.124h-6.799v4.149h7.099v4.124h-11.797V2.192h11.797V6.316z"/>
	<path fill="#FFFFFF" d="M222.994,18.688h7.099v4.124h-11.797V2.192h4.698V18.688z"/>
	<path fill="#FFFFFF" d="M237.119,18.688h7.099v4.124h-11.797V2.192h4.698V18.688z"/>
	<path fill="#FFFFFF" d="M258.343,6.316h-7.099v4.099h6.799v4.124h-6.799v4.149h7.099v4.124h-11.797V2.192h11.797L258.343,6.316
		L258.343,6.316z"/>
	<path fill="#FFFFFF" d="M265.744,22.813h-4.698V2.192h4.698l8.198,12.797h0.05V2.192h4.699v20.62h-4.699l-8.198-12.797h-0.05
		V22.813z"/>
	<path fill="#FFFFFF" d="M295.916,17.289l2,3.999c0,0-2.3,1.899-6.773,1.899c-5.823,0-11.172-4.749-11.172-10.647
		c0-5.924,5.323-10.723,11.172-10.723c4.474,0,6.773,1.9,6.773,1.9l-2,3.999c0,0-1.649-1.275-4.049-1.275
		c-4.724,0-6.798,3.299-6.798,6.049c0,2.774,2.074,6.073,6.798,6.073C294.267,18.563,295.916,17.289,295.916,17.289z"/>
	<path fill="#FFFFFF" d="M311.518,6.316h-7.099v4.099h6.799v4.124h-6.799v4.149h7.099v4.124h-11.797V2.192h11.797V6.316z"/>
	<path fill="#FFFFFF" d="M13.774,42.774c0,2.75-2.288,5.039-5.017,5.039H1.408v-17.69h7.349c2.53,0,4.577,2.046,4.577,4.577
		c0,1.562-0.792,2.948-1.958,3.762C12.806,39.363,13.774,40.97,13.774,42.774z M8.713,46.316c1.936,0,3.499-1.563,3.499-3.499
		c0-1.937-1.563-3.499-3.499-3.499H3.608c-0.242,0-0.506-0.044-0.682-0.088l0.022,7.085h5.765V46.316z M2.948,31.706v5.611
		c0,0.22,0.088,0.418,0.682,0.418h5.105c1.672,0,3.036-1.364,3.036-3.036c0-1.65-1.364-3.037-3.036-3.037L2.948,31.706z"/>
	<path fill="#FFFFFF" d="M17.116,30.122c0.616,0,1.122,0.506,1.122,1.122s-0.506,1.1-1.122,1.1s-1.1-0.484-1.1-1.1
		S16.5,30.122,17.116,30.122z M16.39,34.633h1.54v13.18h-1.54V34.633z"/>
	<path fill="#FFFFFF" d="M20.592,41.211c0-3.63,2.574-6.579,5.743-6.579c3.455,0,5.743,3.212,5.743,6.579
		c0,3.653-2.575,6.601-5.743,6.601C22.88,47.813,20.592,44.6,20.592,41.211z M22.132,41.189c0,2.816,1.915,5.083,4.203,5.083
		c2.289,0,4.203-2.267,4.203-5.083s-1.914-5.061-4.203-5.061C24.046,36.129,22.132,38.373,22.132,41.189z"/>
	<path fill="#FFFFFF" d="M44.64,41.102c0,3.542-2.97,6.513-6.513,6.513h-0.902c-0.704,0-0.704,0.396-0.704,0.484v4.225h-1.54v-17.69
		h3.125C41.449,34.633,44.64,37.383,44.64,41.102z M36.542,46.14c0.22-0.044,0.44-0.066,0.682-0.066h0.902
		c2.729,0,4.951-2.222,4.951-4.951s-2.222-4.951-4.951-4.951h-1.584V46.14z"/>
	<path fill="#FFFFFF" d="M57.29,39.847v7.965h-1.54v-7.965c0-1.958-1.453-3.521-3.212-3.521h-2.641c-0.066,0-0.33,0-0.572-0.044
		v11.53h-1.54v-17.69h1.54v3.982c0,0.704,0.44,0.704,0.506,0.704h2.707C55.155,34.809,57.29,37.163,57.29,39.847z"/>
	<path fill="#FFFFFF" d="M59.796,43.852c0-2.223,2.2-3.96,4.752-3.96c0,0,2.354,0,2.685,0c0.088,0,0.528-0.022,0.528-0.594v-0.726
		c0-1.276-1.32-2.398-3.036-2.398c-1.1,0-2.068,0.462-2.619,1.188l-0.462,0.616l-1.232-0.924l0.462-0.616
		c0.858-1.145,2.31-1.804,3.873-1.804c2.442,0,4.555,1.782,4.555,3.96v5.281c0,2.222-2.201,3.938-4.753,3.938
		S59.796,46.074,59.796,43.852z M64.527,41.476c-1.76,0.022-3.234,1.078-3.234,2.376c0,1.276,1.474,2.398,3.234,2.398
		c1.738,0,3.234-1.123,3.234-2.398v-2.464c-0.286,0.066-0.484,0.066-0.572,0.066L64.527,41.476z"/>
	<path fill="#FFFFFF" d="M72.578,47.813v-8.097c0-2.772,2.112-5.083,4.752-5.083h0.22v1.54h-0.22c-1.76,0-3.212,1.562-3.212,3.521
		v8.119H72.578z"/>
	<path fill="#FFFFFF" d="M97.594,39.693v8.119h-1.54v-8.119c0-1.958-1.452-3.521-3.212-3.521s-3.212,1.562-3.212,3.521v8.119h-1.541
		v-8.119c0-1.958-1.452-3.521-3.212-3.521s-3.212,1.562-3.212,3.521v8.119h-1.54v-8.119c0-2.794,2.156-5.061,4.752-5.061
		c1.563,0,3.125,0.836,3.982,2.288c0.836-1.452,2.42-2.288,3.983-2.288C95.482,34.633,97.594,37.009,97.594,39.693z"/>
	<path fill="#FFFFFF" d="M100.297,43.852c0-2.223,2.2-3.96,4.752-3.96c0,0,2.354,0,2.685,0c0.088,0,0.528-0.022,0.528-0.594v-0.726
		c0-1.276-1.32-2.398-3.036-2.398c-1.1,0-2.068,0.462-2.619,1.188l-0.462,0.616l-1.232-0.924l0.462-0.616
		c0.858-1.145,2.31-1.804,3.873-1.804c2.442,0,4.555,1.782,4.555,3.96v5.281c0,2.222-2.201,3.938-4.753,3.938
		S100.297,46.074,100.297,43.852z M105.028,41.476c-1.76,0.022-3.234,1.078-3.234,2.376c0,1.276,1.474,2.398,3.234,2.398
		c1.738,0,3.234-1.123,3.234-2.398v-2.464c-0.286,0.066-0.484,0.066-0.572,0.066L105.028,41.476z"/>
	<path fill="#FFFFFF" d="M112.265,41.233c0-3.586,2.53-6.601,5.567-6.601c1.672,0,3.014,0.682,4.313,2.42l-1.232,0.924
		c-1.012-1.342-1.98-1.804-3.058-1.804c-2.178,0-4.005,2.178-4.005,5.061s1.827,5.039,4.005,5.039c1.078,0,2.112-0.462,3.125-1.805
		l1.232,0.924c-1.298,1.738-2.75,2.42-4.356,2.42C114.421,47.813,112.265,44.446,112.265,41.233z"/>
	<path fill="#FFFFFF" d="M123.969,41.41c0-3.608,2.354-6.777,5.545-6.777c2.486,0,4.225,1.408,4.225,3.3
		c0,2.046-2.002,3.542-4.731,3.542h-3.014c-0.374,0-0.418,0.374-0.418,0.528c0,1.87,1.848,4.247,3.96,4.247
		c1.276,0,2.222-0.418,3.256-1.805l1.232,0.924c-1.079,1.452-2.289,2.442-4.511,2.442C126.191,47.813,123.969,44.776,123.969,41.41z
		 M125.62,39.936c0.242-0.044,0.33-0.044,0.352-0.044h2.992c1.937,0,3.212-0.858,3.212-1.98c0-0.792-0.748-1.76-2.662-1.76
		C127.666,36.151,126.082,37.757,125.62,39.936z"/>
	<path fill="#FFFFFF" d="M135.739,42.752v-8.119h1.54v8.119c0,1.958,1.452,3.521,3.212,3.521s3.212-1.563,3.212-3.521v-8.119h1.541
		v8.119c0,2.794-2.157,5.061-4.753,5.061S135.739,45.546,135.739,42.752z"/>
	<path fill="#FFFFFF" d="M153.449,46.272h0.22v1.54h-0.22c-2.618,0-4.752-2.333-4.752-5.104V30.122h1.54v4.796
		c0.22-0.044,0.44-0.066,0.682-0.066h2.75v1.541h-2.75c-0.682,0-0.704,0.33-0.704,0.506v5.831
		C150.237,44.71,151.689,46.272,153.449,46.272z"/>
	<path fill="#FFFFFF" d="M157.783,30.122c0.616,0,1.122,0.506,1.122,1.122s-0.506,1.1-1.122,1.1s-1.1-0.484-1.1-1.1
		S157.167,30.122,157.783,30.122z M157.057,34.633h1.54v13.18h-1.54V34.633z"/>
	<path fill="#FFFFFF" d="M161.853,41.233c0-3.586,2.53-6.601,5.567-6.601c1.672,0,3.014,0.682,4.313,2.42l-1.232,0.924
		c-1.012-1.342-1.98-1.804-3.058-1.804c-2.178,0-4.005,2.178-4.005,5.061s1.827,5.039,4.005,5.039c1.078,0,2.112-0.462,3.125-1.805
		l1.232,0.924c-1.298,1.738-2.75,2.42-4.356,2.42C164.009,47.813,161.853,44.446,161.853,41.233z"/>
	<path fill="#FFFFFF" d="M173.601,43.852c0-2.223,2.2-3.96,4.752-3.96c0,0,2.354,0,2.685,0c0.088,0,0.528-0.022,0.528-0.594v-0.726
		c0-1.276-1.32-2.398-3.036-2.398c-1.1,0-2.068,0.462-2.619,1.188l-0.462,0.616l-1.232-0.924l0.462-0.616
		c0.858-1.145,2.31-1.804,3.873-1.804c2.442,0,4.555,1.782,4.555,3.96v5.281c0,2.222-2.201,3.938-4.753,3.938
		S173.601,46.074,173.601,43.852z M178.331,41.476c-1.76,0.022-3.234,1.078-3.234,2.376c0,1.276,1.474,2.398,3.234,2.398
		c1.738,0,3.234-1.123,3.234-2.398v-2.464c-0.286,0.066-0.484,0.066-0.572,0.066L178.331,41.476z"/>
	<path fill="#FFFFFF" d="M185.965,30.122h1.54v17.69h-1.54V30.122z"/>
	<path fill="#FFFFFF" d="M209.66,31.662h-5.985v16.15h-1.541v-16.15h-5.655v-1.54h13.18v1.54H209.66z"/>
	<path fill="#FFFFFF" d="M208.338,41.41c0-3.608,2.354-6.777,5.545-6.777c2.486,0,4.225,1.408,4.225,3.3
		c0,2.046-2.002,3.542-4.73,3.542h-3.015c-0.374,0-0.418,0.374-0.418,0.528c0,1.87,1.848,4.247,3.96,4.247
		c1.276,0,2.223-0.418,3.257-1.805l1.232,0.924c-1.078,1.452-2.288,2.442-4.511,2.442C210.56,47.813,208.338,44.776,208.338,41.41z
		 M209.988,39.936c0.242-0.044,0.33-0.044,0.352-0.044h2.993c1.936,0,3.212-0.858,3.212-1.98c0-0.792-0.748-1.76-2.662-1.76
		C212.034,36.151,210.45,37.757,209.988,39.936z"/>
	<path fill="#FFFFFF" d="M220.063,41.233c0-3.586,2.531-6.601,5.567-6.601c1.672,0,3.015,0.682,4.313,2.42l-1.232,0.924
		c-1.012-1.342-1.98-1.804-3.059-1.804c-2.178,0-4.004,2.178-4.004,5.061s1.826,5.039,4.004,5.039c1.078,0,2.112-0.462,3.125-1.805
		l1.232,0.924c-1.299,1.738-2.751,2.42-4.357,2.42C222.219,47.813,220.063,44.446,220.063,41.233z"/>
	<path fill="#FFFFFF" d="M242.285,39.847v7.965h-1.541v-7.965c0-1.958-1.452-3.521-3.212-3.521h-2.641c-0.066,0-0.33,0-0.572-0.044
		v11.53h-1.54v-17.69h1.54v3.982c0,0.704,0.44,0.704,0.506,0.704h2.707C240.15,34.809,242.285,37.163,242.285,39.847z"/>
	<path fill="#FFFFFF" d="M253.504,47.813v-8.119c0-1.958-1.452-3.521-3.212-3.521c-1.761,0-3.213,1.562-3.213,3.521v8.119h-1.54
		v-8.119c0-2.794,2.156-5.061,4.753-5.061c2.596,0,4.752,2.266,4.752,5.061v8.119H253.504z"/>
	<path fill="#FFFFFF" d="M257.617,41.211c0-3.63,2.574-6.579,5.743-6.579c3.454,0,5.742,3.212,5.742,6.579
		c0,3.653-2.574,6.601-5.742,6.601C259.905,47.813,257.617,44.6,257.617,41.211z M259.157,41.189c0,2.816,1.914,5.083,4.203,5.083
		c2.288,0,4.202-2.267,4.202-5.083s-1.914-5.061-4.202-5.061C261.071,36.129,259.157,38.373,259.157,41.189z"/>
	<path fill="#FFFFFF" d="M272.182,30.122h1.54v17.69h-1.54V30.122z"/>
	<path fill="#FFFFFF" d="M276.428,41.211c0-3.63,2.574-6.579,5.743-6.579c3.454,0,5.742,3.212,5.742,6.579
		c0,3.653-2.574,6.601-5.742,6.601C278.716,47.813,276.428,44.6,276.428,41.211z M277.968,41.189c0,2.816,1.914,5.083,4.203,5.083
		c2.288,0,4.202-2.267,4.202-5.083s-1.914-5.061-4.202-5.061C279.882,36.129,277.968,38.373,277.968,41.189z"/>
	<path fill="#FFFFFF" d="M299.771,34.633v13.708c0,2.178-2.112,3.982-4.555,3.982c-1.563,0-3.234-0.748-4.313-2.42l1.231-0.924
		c0.771,1.254,1.98,1.804,3.059,1.804c1.717,0,3.036-1.144,3.036-2.42c0-0.55-0.109-0.749-0.66-0.749h-0.901
		c-3.543,0-6.514-2.97-6.514-6.513c0-3.564,2.949-6.469,6.514-6.469h3.103V34.633z M298.23,46.096v-9.945h-1.584
		c-2.729,0-4.95,2.222-4.95,4.951s2.222,4.951,4.95,4.951h0.902C297.791,46.052,298.055,46.052,298.23,46.096z"/>
	<path fill="#FFFFFF" d="M314.138,34.633c0,0-4.929,13.246-5.369,14.39c-0.682,1.827-2.354,3.301-4.29,3.301h-0.748v-1.496h0.748
		c1.474,0,2.992-1.584,2.992-3.125c0-0.572-0.176-1.276-0.462-2.068l-4.115-11.001h1.606c3.917,10.495,3.982,10.671,4.026,10.825
		l4.027-10.825L314.138,34.633L314.138,34.633z"/>
</g>
</svg>
